<svg width="326" height="326" viewBox="0 0 326 326" fill="none" xmlns="http://www.w3.org/2000/svg">
<g filter="url(#filter0_d_1_124)">
<path d="M162.906 7.52308C162.906 3.6703 166.031 0.53099 169.88 0.7004C202.911 2.1542 234.728 13.9058 260.823 34.397C288.751 56.3269 308.509 86.9972 316.93 121.493C325.351 155.989 321.949 192.313 307.268 224.645C292.587 256.976 267.477 283.444 235.963 299.806C204.449 316.168 168.354 321.477 133.463 314.883C98.5715 308.289 66.9041 290.173 43.5348 263.438C20.1656 236.703 6.44748 202.897 4.57882 167.438C2.83277 134.304 11.5268 101.52 29.3419 73.6671C31.4178 70.4214 35.7835 69.6715 38.9348 71.8882V71.8882C42.086 74.1049 42.8279 78.4483 40.7657 81.7027C24.7409 106.992 16.93 136.691 18.5116 166.703C20.2158 199.042 32.7267 229.873 54.0395 254.256C75.3522 278.638 104.233 295.16 136.054 301.174C167.874 307.188 200.793 302.346 229.534 287.423C258.275 272.501 281.175 248.363 294.564 218.876C307.953 189.39 311.056 156.262 303.376 124.802C295.696 93.3417 277.677 65.3704 252.207 45.3703C228.569 26.8093 199.785 16.1108 169.88 14.6673C166.032 14.4816 162.906 11.3759 162.906 7.52308V7.52308Z" fill="white"/>
</g>
<defs>
<filter id="filter0_d_1_124" x="0.359131" y="0.693848" width="325.094" height="324.947" filterUnits="userSpaceOnUse" color-interpolation-filters="sRGB">
<feFlood flood-opacity="0" result="BackgroundImageFix"/>
<feColorMatrix in="SourceAlpha" type="matrix" values="0 0 0 0 0 0 0 0 0 0 0 0 0 0 0 0 0 0 127 0" result="hardAlpha"/>
<feOffset dy="4"/>
<feGaussianBlur stdDeviation="2"/>
<feComposite in2="hardAlpha" operator="out"/>
<feColorMatrix type="matrix" values="0 0 0 0 0 0 0 0 0 0 0 0 0 0 0 0 0 0 0.25 0"/>
<feBlend mode="normal" in2="BackgroundImageFix" result="effect1_dropShadow_1_124"/>
<feBlend mode="normal" in="SourceGraphic" in2="effect1_dropShadow_1_124" result="shape"/>
</filter>
</defs>
</svg>
