<svg width="235" height="235" viewBox="0 0 235 235" fill="none" xmlns="http://www.w3.org/2000/svg">
<path d="M117.052 7.59436C117.052 3.52284 120.356 0.19803 124.42 0.454336C145.725 1.79821 166.309 8.95045 183.907 21.2004C203.526 34.8575 218.492 54.1956 226.791 76.6131C235.09 99.0307 236.325 123.452 230.329 146.593C224.333 169.733 211.393 190.482 193.252 206.048C175.11 221.614 152.636 231.251 128.854 233.661C105.071 236.072 81.1205 231.142 60.2241 219.533C39.3277 207.924 22.4879 190.194 11.97 168.727C2.53588 149.473 -1.40602 128.041 0.502654 106.779C0.86668 102.724 4.6549 99.9631 8.67915 100.582V100.582C12.7034 101.2 15.4362 104.964 15.109 109.023C13.6354 127.302 17.1018 145.691 25.2103 162.24C34.403 181.002 49.121 196.498 67.3844 206.644C85.6479 216.79 106.581 221.099 127.367 218.992C148.153 216.885 167.795 208.463 183.651 194.858C199.506 181.253 210.815 163.119 216.056 142.894C221.297 122.67 220.218 101.325 212.964 81.7321C205.71 62.1392 192.63 45.2377 175.483 33.3014C160.358 22.7727 142.709 16.5526 124.418 15.232C120.357 14.9388 117.052 11.6659 117.052 7.59436V7.59436Z" fill="url(#paint0_linear_1_125)"/>
<defs>
<linearGradient id="paint0_linear_1_125" x1="0.0341797" y1="0.222229" x2="245.999" y2="180.306" gradientUnits="userSpaceOnUse">
<stop stop-color="#6A35EE"/>
<stop offset="0.152794" stop-color="#9930EF"/>
<stop offset="0.531809" stop-color="#5737EE"/>
<stop offset="1" stop-color="#795CEB"/>
</linearGradient>
</defs>
</svg>
