<svg width="44" height="44" viewBox="0 0 44 44" fill="none" xmlns="http://www.w3.org/2000/svg">
<path d="M36.6667 14.6667H7.33333C6.32081 14.6667 5.5 15.4875 5.5 16.5V20.1667C5.5 21.1792 6.32081 22 7.33333 22H36.6667C37.6792 22 38.5 21.1792 38.5 20.1667V16.5C38.5 15.4875 37.6792 14.6667 36.6667 14.6667Z" stroke="white" stroke-width="2.75" stroke-linecap="round" stroke-linejoin="round"/>
<path d="M22 14.6667V38.5" stroke="white" stroke-width="2.75" stroke-linecap="round" stroke-linejoin="round"/>
<path d="M34.8327 22V34.8333C34.8327 35.8058 34.4464 36.7384 33.7587 37.4261C33.0711 38.1137 32.1385 38.5 31.166 38.5H12.8327C11.8602 38.5 10.9276 38.1137 10.24 37.4261C9.55232 36.7384 9.16602 35.8058 9.16602 34.8333V22" stroke="white" stroke-width="2.75" stroke-linecap="round" stroke-linejoin="round"/>
<path d="M13.7493 14.6667C12.5338 14.6667 11.368 14.1838 10.5084 13.3242C9.6489 12.4647 9.16602 11.2989 9.16602 10.0833C9.16602 8.86777 9.6489 7.70198 10.5084 6.84244C11.368 5.98289 12.5338 5.50001 13.7493 5.50001C15.5179 5.46919 17.2511 6.32732 18.7227 7.96247C20.1943 9.59762 21.3362 11.9339 21.9993 14.6667C22.6625 11.9339 23.8044 9.59762 25.276 7.96247C26.7476 6.32732 28.4808 5.46919 30.2493 5.50001C31.4649 5.50001 32.6307 5.98289 33.4903 6.84244C34.3498 7.70198 34.8327 8.86777 34.8327 10.0833C34.8327 11.2989 34.3498 12.4647 33.4903 13.3242C32.6307 14.1838 31.4649 14.6667 30.2493 14.6667" stroke="white" stroke-width="2.75" stroke-linecap="round" stroke-linejoin="round"/>
</svg>
