<svg width="48" height="48" viewBox="0 0 48 48" fill="none" xmlns="http://www.w3.org/2000/svg">
<rect width="47.1579" height="48" rx="23.5789" fill="url(#paint0_linear_2_18)"/>
<path d="M30.0644 25.3691C29.6588 24.6924 29.1027 24.1183 28.4394 23.6913C27.7935 23.2747 27.0918 22.9519 26.3553 22.7325C25.9491 22.6066 25.4575 22.4766 24.8969 22.3263C24.4459 22.2003 23.9544 22.0825 23.1947 21.92C22.4074 21.7538 21.6345 21.5255 20.8831 21.2375C20.5161 21.0877 20.1912 20.8506 19.9366 20.5469C19.7283 20.2755 19.6257 19.9376 19.6481 19.5962C19.6481 19.5434 19.6481 19.4947 19.6481 19.4419C19.6641 19.1539 19.7644 18.877 19.9366 18.6456C20.2417 18.2748 20.6419 17.994 21.0944 17.8331C21.8394 17.5816 22.6243 17.4687 23.41 17.5C24.0189 17.5001 24.6252 17.5793 25.2137 17.7356C25.6037 17.8462 25.9709 18.025 26.2984 18.2638C26.5064 18.4132 26.6842 18.6007 26.8225 18.8163L27.7041 20.1812L30.4381 18.4222L29.5566 17.0572C29.1998 16.4995 28.7408 16.0143 28.2037 15.6272C27.5705 15.1664 26.8609 14.8212 26.1075 14.6075C25.8146 14.5247 25.5176 14.4569 25.2178 14.4044V11H21.9678V14.3353C21.317 14.4175 20.676 14.5645 20.0544 14.7741C19.0395 15.1232 18.1392 15.7427 17.4503 16.5656L17.4056 16.6184C16.7801 17.4131 16.4243 18.3865 16.39 19.3972C16.3222 20.5106 16.6551 21.6116 17.3284 22.5009L17.3812 22.57C18.0037 23.3308 18.8127 23.9172 19.7294 24.2722C20.6383 24.616 21.5728 24.8876 22.5244 25.0847C23.2191 25.2391 23.6619 25.3447 24.06 25.4584H24.1047C24.6206 25.5884 25.0553 25.7063 25.4331 25.82C25.8736 25.9499 26.2934 26.1414 26.6803 26.3888C26.9113 26.5421 27.1055 26.7447 27.2491 26.9819C27.3959 27.2736 27.4659 27.598 27.4522 27.9244C27.4522 27.9487 27.4522 27.9731 27.4522 27.9975C27.4661 28.3919 27.3536 28.7805 27.1312 29.1066C26.8083 29.5567 26.3585 29.9004 25.8394 30.0938C25.0508 30.3957 24.209 30.5339 23.3653 30.5H23.2637C22.3487 30.5278 21.4403 30.3355 20.615 29.9394C20.2068 29.7189 19.8572 29.4041 19.5953 29.0212L18.6691 27.6847L16 29.5372L16.9262 30.8737C17.4916 31.6929 18.2453 32.3644 19.1241 32.8319L19.1687 32.8522C20.0506 33.2794 20.9959 33.5607 21.9678 33.685V37H25.2178V33.6119C25.8351 33.5038 26.4395 33.3323 27.0216 33.1C28.1175 32.6822 29.0686 31.9554 29.7597 31.0078C30.3106 30.1897 30.632 29.2388 30.6906 28.2542C30.7492 27.2697 30.5428 26.2874 30.0928 25.4097L30.0644 25.3691Z" fill="white"/>
<defs>
<linearGradient id="paint0_linear_2_18" x1="0" y1="0" x2="50.1705" y2="36.088" gradientUnits="userSpaceOnUse">
<stop stop-color="#6A35EE"/>
<stop offset="0.152794" stop-color="#9930EF"/>
<stop offset="0.531809" stop-color="#5737EE"/>
<stop offset="1" stop-color="#795CEB"/>
</linearGradient>
</defs>
</svg>
