<svg width="24" height="24" viewBox="0 0 24 24" fill="none" xmlns="http://www.w3.org/2000/svg">
<path d="M15.2 8.79999C16.4731 8.79999 17.694 9.3057 18.5941 10.2059C19.4943 11.106 20 12.3269 20 13.6V19.2H16.8V13.6C16.8 13.1756 16.6315 12.7687 16.3314 12.4686C16.0313 12.1686 15.6244 12 15.2 12C14.7757 12 14.3687 12.1686 14.0687 12.4686C13.7686 12.7687 13.6 13.1756 13.6 13.6V19.2H10.4V13.6C10.4 12.3269 10.9057 11.106 11.8059 10.2059C12.7061 9.3057 13.927 8.79999 15.2 8.79999Z" fill="white"/>
<path d="M7.2 9.60001H4V19.2H7.2V9.60001Z" fill="white"/>
<path d="M5.6 7.2C6.48366 7.2 7.2 6.48366 7.2 5.6C7.2 4.71634 6.48366 4 5.6 4C4.71634 4 4 4.71634 4 5.6C4 6.48366 4.71634 7.2 5.6 7.2Z" fill="white"/>
</svg>
