<svg width="24" height="24" viewBox="0 0 24 24" fill="none" xmlns="http://www.w3.org/2000/svg">
<path d="M18.6668 6.67334C18.0002 7.00001 17.3468 7.13268 16.6668 7.33334C15.9195 6.49001 14.8115 6.44334 13.7468 6.84201C12.6822 7.24068 11.9848 8.21534 12.0002 9.33334V10C9.83683 10.0553 7.91016 9.07001 6.66683 7.33334C6.66683 7.33334 3.87883 12.2887 9.3335 14.6667C8.0855 15.498 6.84083 16.0587 5.3335 16C7.53883 17.202 9.94216 17.6153 12.0228 17.0113C14.4095 16.318 16.3708 14.5293 17.1235 11.85C17.348 11.0351 17.4595 10.1932 17.4548 9.34801C17.4535 9.18201 18.4615 7.50001 18.6668 6.67268V6.67334Z" fill="white"/>
</svg>
